<svg xmlns="http://www.w3.org/2000/svg" viewBox="0 0 80 80" width="80" height="80">
	<defs>
		<clipPath clipPathUnits="userSpaceOnUse" id="cp1">
			<path d="M0 0L80 0L80 80L0 80Z" />
		</clipPath>
	</defs>
	<style>
		tspan { white-space:pre }
		.shp0 { fill: none;stroke: #ff6b00;stroke-linejoin:round;stroke-width: 22.678 } 
		.shp1 { fill: none;stroke: #ffffff;stroke-linejoin:round;stroke-width: 11.338 } 
		.shp2 { fill: #ff6b00 } 
	</style>
	<g id="Page 1" clip-path="url(#cp1)">
		<path id="Path 1" class="shp0" d="M54.13 34.24L55.24 37.41L56.78 37.05C56.78 37.05 55.34 36.63 55.03 35.75C54.72 34.87 55.65 33.85 55.65 33.85L54.13 34.24ZM55.29 37.43L54.18 34.26L52.65 34.62C52.65 34.62 54.09 35.04 54.4 35.92C54.71 36.8 53.77 37.83 53.77 37.83L55.29 37.43ZM55.65 45.64C55.65 45.64 54.72 44.61 55.03 43.73C55.34 42.85 56.78 42.44 56.78 42.44L55.24 42.08L54.13 45.25L55.65 45.64ZM53.77 41.66C53.77 41.66 54.71 42.69 54.4 43.57C54.09 44.45 52.65 44.86 52.65 44.86L54.18 45.22L55.29 42.05L53.77 41.66ZM63.31 29.22L65.08 37.37L66.28 36.8C66.28 36.8 64.96 35.45 64.47 33.19C63.98 30.93 64.49 28.57 64.49 28.57L63.31 29.22ZM65.13 37.44L63.36 29.28L62.17 29.85C62.17 29.85 63.49 31.2 63.98 33.46C64.47 35.72 63.95 38.08 63.95 38.08L65.13 37.44ZM64.49 51.03C64.49 51.03 63.98 48.68 64.47 46.41C64.96 44.15 66.28 42.8 66.28 42.8L65.08 42.23L63.31 50.38L64.49 51.03ZM63.95 41.52C63.95 41.52 64.47 43.88 63.98 46.14C63.49 48.41 62.17 49.75 62.17 49.75L63.36 50.32L65.13 42.17L63.95 41.52ZM58.45 41.01C58.45 41.01 59.52 40.03 60.84 40.03C62.15 40.03 63.22 41.01 63.22 41.01L63.17 39.75L58.45 39.75L58.45 41.01ZM63.22 38.52C63.22 38.52 62.15 39.5 60.84 39.5C59.52 39.5 58.45 38.52 58.45 38.52L58.5 39.78L63.22 39.78L63.22 38.52ZM69.06 39.78C69.06 38.09 67.68 36.71 65.99 36.71C64.29 36.71 62.92 38.09 62.92 39.78C62.92 41.48 64.29 42.85 65.99 42.85C67.68 42.85 69.06 41.48 69.06 39.78ZM58.79 39.78C58.79 38.09 57.41 36.71 55.72 36.71C54.02 36.71 52.65 38.09 52.65 39.78C52.65 41.48 54.02 42.85 55.72 42.85C57.41 42.85 58.79 41.48 58.79 39.78ZM26.27 45.36L25.16 42.19L23.62 42.55C23.62 42.55 25.06 42.97 25.37 43.85C25.68 44.73 24.75 45.76 24.75 45.76L26.27 45.36ZM25.1 42.17L26.22 45.34L27.75 44.98C27.75 44.98 26.31 44.56 26 43.68C25.69 42.8 26.63 41.78 26.63 41.78L25.1 42.17ZM24.75 33.96C24.75 33.96 25.68 34.99 25.37 35.87C25.06 36.75 23.62 37.16 23.62 37.16L25.16 37.53L26.27 34.36L24.75 33.96ZM26.63 37.94C26.63 37.94 25.69 36.91 26 36.03C26.31 35.15 27.75 34.74 27.75 34.74L26.22 34.38L25.1 37.55L26.63 37.94ZM17.09 50.38L15.32 42.23L14.12 42.8C14.12 42.8 15.44 44.15 15.93 46.41C16.42 48.68 15.91 51.03 15.91 51.03L17.09 50.38ZM15.27 42.17L17.03 50.32L18.23 49.75C18.23 49.75 16.91 48.41 16.42 46.14C15.93 43.88 16.45 41.52 16.45 41.52L15.27 42.17ZM15.91 28.57C15.91 28.57 16.42 30.93 15.93 33.19C15.44 35.45 14.12 36.8 14.12 36.8L15.32 37.37L17.09 29.22L15.91 28.57ZM16.45 38.08C16.45 38.08 15.93 35.72 16.42 33.46C16.91 31.2 18.23 29.85 18.23 29.85L17.03 29.28L15.27 37.44L16.45 38.08ZM21.95 38.59C21.95 38.59 20.87 39.58 19.56 39.58C18.25 39.58 17.18 38.59 17.18 38.59L17.22 39.86L21.95 39.86L21.95 38.59ZM17.18 41.08C17.18 41.08 18.25 40.1 19.56 40.1C20.87 40.1 21.95 41.08 21.95 41.08L21.9 39.82L17.18 39.82L17.18 41.08ZM11.34 39.82C11.34 41.52 12.71 42.89 14.41 42.89C16.11 42.89 17.48 41.52 17.48 39.82C17.48 38.12 16.11 36.75 14.41 36.75C12.71 36.75 11.34 38.12 11.34 39.82ZM21.61 39.82C21.61 41.52 22.99 42.89 24.68 42.89C26.38 42.89 27.75 41.52 27.75 39.82C27.75 38.12 26.38 36.75 24.68 36.75C22.99 36.75 21.61 38.12 21.61 39.82ZM45.76 53.73L42.59 54.84L42.95 56.38C42.95 56.38 43.37 54.94 44.25 54.63C45.13 54.32 46.15 55.25 46.15 55.25L45.76 53.73ZM42.57 54.9L45.74 53.78L45.38 52.25C45.38 52.25 44.96 53.69 44.08 54C43.2 54.31 42.17 53.37 42.17 53.37L42.57 54.9ZM34.36 55.25C34.36 55.25 35.39 54.32 36.27 54.63C37.15 54.94 37.56 56.38 37.56 56.38L37.92 54.84L34.75 53.73L34.36 55.25ZM38.34 53.37C38.34 53.37 37.31 54.31 36.43 54C35.55 53.69 35.14 52.25 35.14 52.25L34.78 53.78L37.95 54.9L38.34 53.37ZM50.78 62.92L42.63 64.68L43.2 65.88C43.2 65.88 44.54 64.56 46.81 64.07C49.07 63.58 51.43 64.1 51.43 64.1L50.78 62.92ZM42.57 64.73L50.72 62.97L50.15 61.77C50.15 61.77 48.8 63.09 46.54 63.58C44.28 64.07 41.92 63.55 41.92 63.55L42.57 64.73ZM28.97 64.1C28.97 64.1 31.32 63.58 33.59 64.07C35.85 64.56 37.2 65.88 37.2 65.88L37.76 64.68L29.62 62.92L28.97 64.1ZM38.48 63.55C38.48 63.55 36.12 64.07 33.86 63.58C31.59 63.09 30.25 61.77 30.25 61.77L29.68 62.97L37.83 64.73L38.48 63.55ZM38.99 58.05C38.99 58.05 39.97 59.12 39.97 60.44C39.97 61.75 38.99 62.82 38.99 62.82L40.25 62.78L40.25 58.05L38.99 58.05ZM41.48 62.82C41.48 62.82 40.5 61.75 40.5 60.44C40.5 59.12 41.48 58.05 41.48 58.05L40.22 58.1L40.22 62.82L41.48 62.82ZM40.22 68.66C41.91 68.66 43.29 67.29 43.29 65.59C43.29 63.89 41.91 62.52 40.22 62.52C38.52 62.52 37.15 63.89 37.15 65.59C37.15 67.29 38.52 68.66 40.22 68.66ZM40.22 58.39C41.91 58.39 43.29 57.02 43.29 55.32C43.29 53.62 41.91 52.25 40.22 52.25C38.52 52.25 37.15 53.62 37.15 55.32C37.15 57.02 38.52 58.39 40.22 58.39ZM52 49.05L49.82 51.61L50.9 52.75C50.9 52.75 50.54 51.3 51.15 50.59C51.75 49.88 53.11 50.17 53.11 50.17L52 49.05ZM49.83 51.66L52.01 49.11L50.93 47.96C50.93 47.96 51.29 49.42 50.69 50.13C50.08 50.84 48.72 50.54 48.72 50.54L49.83 51.66ZM42.91 56.1C42.91 56.1 43.33 54.77 44.25 54.6C45.16 54.42 46.24 55.46 46.24 55.46L45.79 53.95L42.49 54.58L42.91 56.1ZM45.41 52.47C45.41 52.47 44.99 53.79 44.07 53.97C43.15 54.14 42.07 53.11 42.07 53.11L42.53 54.62L45.83 53.99L45.41 52.47ZM60.96 54.47L54.8 60.09L55.89 60.85C55.89 60.85 56.39 59.03 58.1 57.47C59.81 55.9 62.11 55.17 62.11 55.17L60.96 54.47ZM54.77 60.17L60.93 54.55L59.84 53.8C59.84 53.8 59.34 55.62 57.62 57.18C55.91 58.74 53.61 59.48 53.61 59.48L54.77 60.17ZM42.69 66.45C42.69 66.45 44.47 64.82 46.67 64.11C48.88 63.39 50.7 63.86 50.7 63.86L50.59 62.54L42.66 65.1L42.69 66.45ZM50.64 61.2C50.64 61.2 48.86 62.83 46.66 63.55C44.45 64.26 42.63 63.79 42.63 63.79L42.74 65.12L50.67 62.55L50.64 61.2ZM48.32 56.19C48.32 56.19 49.71 56.62 50.37 57.76C51.03 58.89 50.72 60.32 50.72 60.32L51.79 59.64L49.41 55.55L48.32 56.19ZM52.87 59.07C52.87 59.07 51.48 58.63 50.82 57.5C50.16 56.36 50.47 54.94 50.47 54.94L49.41 55.62L51.78 59.7L52.87 59.07ZM54.71 64.75C56.18 63.9 56.67 62.02 55.82 60.55C54.97 59.08 53.09 58.59 51.63 59.44C50.16 60.29 49.66 62.17 50.51 63.63C51.37 65.1 53.24 65.6 54.71 64.75ZM49.55 55.87C51.02 55.01 51.52 53.13 50.67 51.67C49.81 50.2 47.93 49.7 46.47 50.55C45 51.41 44.5 53.29 45.36 54.75C46.21 56.22 48.09 56.72 49.55 55.87ZM28.39 30.55L30.58 27.99L29.49 26.85C29.49 26.85 29.86 28.3 29.25 29.01C28.65 29.72 27.29 29.43 27.29 29.43L28.39 30.55ZM30.57 27.94L28.39 30.49L29.47 31.64C29.47 31.64 29.1 30.19 29.71 29.47C30.32 28.77 31.67 29.06 31.67 29.06L30.57 27.94ZM37.49 23.51C37.49 23.51 37.07 24.83 36.15 25C35.23 25.18 34.15 24.14 34.15 24.14L34.61 25.65L37.91 25.02L37.49 23.51ZM34.99 27.13C34.99 27.13 35.41 25.81 36.33 25.63C37.24 25.46 38.33 26.49 38.33 26.49L37.87 24.99L34.57 25.62L34.99 27.13ZM19.44 25.13L25.6 19.51L24.51 18.76C24.51 18.76 24.01 20.57 22.29 22.14C20.58 23.7 18.28 24.44 18.28 24.44L19.44 25.13ZM25.63 19.43L19.47 25.05L20.56 25.8C20.56 25.8 21.06 23.99 22.77 22.42C24.49 20.86 26.79 20.12 26.79 20.12L25.63 19.43ZM37.71 13.15C37.71 13.15 35.93 14.78 33.73 15.5C31.52 16.21 29.69 15.75 29.69 15.75L29.81 17.06L37.74 14.5L37.71 13.15ZM29.76 18.4C29.76 18.4 31.54 16.77 33.74 16.05C35.94 15.34 37.77 15.81 37.77 15.81L37.66 14.49L29.72 17.05L29.76 18.4ZM32.08 23.41C32.08 23.41 30.69 22.98 30.03 21.84C29.37 20.71 29.68 19.28 29.68 19.28L28.61 19.96L30.99 24.05L32.08 23.41ZM27.53 20.53C27.53 20.53 28.92 20.97 29.58 22.11C30.24 23.24 29.92 24.66 29.92 24.66L30.99 23.99L28.62 19.9L27.53 20.53ZM25.69 14.86C24.22 15.71 23.72 17.59 24.58 19.05C25.43 20.52 27.31 21.02 28.77 20.16C30.24 19.31 30.74 17.43 29.88 15.97C29.03 14.5 27.15 14 25.69 14.86ZM30.85 23.74C29.38 24.59 28.88 26.47 29.73 27.93C30.59 29.4 32.46 29.9 33.93 29.05C35.4 28.2 35.89 26.32 35.04 24.85C34.19 23.38 32.31 22.88 30.85 23.74ZM30.95 51.61L28.39 49.42L27.25 50.51C27.25 50.51 28.7 50.14 29.41 50.75C30.12 51.35 29.83 52.71 29.83 52.71L30.95 51.61ZM28.34 49.43L30.89 51.61L32.04 50.53C32.04 50.53 30.58 50.89 29.87 50.29C29.16 49.68 29.46 48.33 29.46 48.33L28.34 49.43ZM23.9 42.51C23.9 42.51 25.23 42.93 25.4 43.85C25.58 44.77 24.54 45.85 24.54 45.85L26.05 45.39L25.42 42.09L23.9 42.51ZM27.53 45.01C27.53 45.01 26.21 44.59 26.03 43.67C25.86 42.76 26.89 41.67 26.89 41.67L25.38 42.13L26.01 45.43L27.53 45.01ZM25.53 60.56L19.91 54.4L19.15 55.49C19.15 55.49 20.97 55.99 22.53 57.7C24.1 59.42 24.83 61.72 24.83 61.72L25.53 60.56ZM19.83 54.37L25.45 60.53L26.2 59.44C26.2 59.44 24.38 58.94 22.82 57.23C21.26 55.51 20.52 53.21 20.52 53.21L19.83 54.37ZM13.55 42.29C13.55 42.29 15.18 44.07 15.89 46.27C16.61 48.48 16.14 50.31 16.14 50.31L17.46 50.19L14.9 42.26L13.55 42.29ZM18.8 50.24C18.8 50.24 17.17 48.46 16.45 46.26C15.74 44.05 16.21 42.23 16.21 42.23L14.89 42.34L17.45 50.28L18.8 50.24ZM23.81 47.92C23.81 47.92 23.38 49.31 22.24 49.97C21.11 50.63 19.68 50.32 19.68 50.32L20.36 51.39L24.44 49.01L23.81 47.92ZM20.93 52.47C20.93 52.47 21.37 51.08 22.5 50.42C23.64 49.77 25.06 50.08 25.06 50.08L24.38 49.01L20.3 51.38L20.93 52.47ZM15.25 54.31C16.1 55.78 17.98 56.28 19.45 55.43C20.92 54.57 21.41 52.7 20.56 51.23C19.71 49.76 17.83 49.26 16.37 50.11C14.9 50.97 14.4 52.85 15.25 54.31ZM24.13 49.15C24.99 50.62 26.87 51.12 28.33 50.27C29.8 49.42 30.3 47.53 29.44 46.07C28.59 44.6 26.71 44.11 25.25 44.96C23.78 45.81 23.28 47.69 24.13 49.15ZM49.45 28L52 30.18L53.15 29.1C53.15 29.1 51.7 29.46 50.99 28.85C50.28 28.25 50.57 26.89 50.57 26.89L49.45 28ZM52.06 30.17L49.51 27.99L48.36 29.07C48.36 29.07 49.82 28.71 50.52 29.31C51.23 29.92 50.94 31.28 50.94 31.28L52.06 30.17ZM56.49 37.09C56.49 37.09 55.17 36.67 55 35.75C54.82 34.84 55.86 33.76 55.86 33.76L54.35 34.21L54.98 37.52L56.49 37.09ZM52.87 34.59C52.87 34.59 54.19 35.01 54.37 35.93C54.54 36.85 53.51 37.93 53.51 37.93L55.01 37.47L54.38 34.17L52.87 34.59ZM54.87 19.04L60.49 25.2L61.24 24.11C61.24 24.11 59.43 23.61 57.86 21.9C56.3 20.19 55.57 17.89 55.57 17.89L54.87 19.04ZM60.57 25.23L54.95 19.07L54.2 20.16C54.2 20.16 56.01 20.66 57.58 22.38C59.14 24.09 59.88 26.39 59.88 26.39L60.57 25.23ZM66.85 37.31C66.85 37.31 65.22 35.53 64.5 33.33C63.79 31.12 64.25 29.29 64.25 29.29L62.94 29.41L65.5 37.35L66.85 37.31ZM61.6 29.36C61.6 29.36 63.23 31.14 63.95 33.34C64.66 35.55 64.19 37.37 64.19 37.37L65.51 37.26L62.95 29.33L61.6 29.36ZM56.59 31.68C56.59 31.68 57.02 30.29 58.16 29.63C59.29 28.97 60.72 29.28 60.72 29.28L60.04 28.21L55.95 30.59L56.59 31.68ZM59.46 27.13C59.46 27.13 59.03 28.52 57.89 29.18C56.76 29.84 55.34 29.53 55.34 29.53L56.01 30.59L60.1 28.22L59.46 27.13ZM65.15 25.29C64.29 23.82 62.42 23.32 60.95 24.18C59.48 25.03 58.98 26.91 59.84 28.37C60.69 29.84 62.57 30.34 64.03 29.49C65.5 28.63 66 26.76 65.15 25.29ZM56.26 30.45C55.41 28.98 53.53 28.48 52.07 29.34C50.6 30.19 50.1 32.07 50.95 33.53C51.81 35 53.68 35.5 55.15 34.64C56.62 33.79 57.12 31.91 56.26 30.45ZM55.06 41.85L54.46 45.16L55.97 45.6C55.97 45.6 54.92 44.53 55.09 43.61C55.26 42.7 56.58 42.26 56.58 42.26L55.06 41.85ZM54.49 45.2L55.09 41.9L53.58 41.45C53.58 41.45 54.63 42.52 54.46 43.44C54.29 44.36 52.97 44.79 52.97 44.79L54.49 45.2ZM50.75 52.52C50.75 52.52 50.44 51.16 51.15 50.55C51.85 49.94 53.31 50.29 53.31 50.29L52.15 49.21L49.62 51.42L50.75 52.52ZM51.08 48.13C51.08 48.13 51.38 49.48 50.68 50.09C49.97 50.71 48.52 50.36 48.52 50.36L49.67 51.43L52.21 49.22L51.08 48.13ZM65.52 42.03L63.03 49.98L64.35 50.09C64.35 50.09 63.87 48.26 64.56 46.05C65.25 43.84 66.87 42.04 66.87 42.04L65.52 42.03ZM63.04 50.07L65.54 42.11L64.21 42.01C64.21 42.01 64.7 43.83 64 46.04C63.31 48.25 61.69 50.05 61.69 50.05L63.04 50.07ZM55.76 61.57C55.76 61.57 56.48 59.27 58.03 57.54C59.57 55.82 61.39 55.3 61.39 55.3L60.62 54.21L55.06 60.43L55.76 61.57ZM60 53.03C60 53.03 59.28 55.34 57.73 57.07C56.19 58.79 54.38 59.31 54.38 59.31L55.14 60.39L60.7 54.18L60 53.03ZM55.47 49.87C55.47 49.87 56.89 49.55 58.03 50.2C59.17 50.85 59.62 52.23 59.62 52.23L60.2 51.11L56.09 48.78L55.47 49.87ZM60.85 50.07C60.85 50.07 59.43 50.39 58.29 49.74C57.15 49.09 56.7 47.71 56.7 47.71L56.12 48.83L60.22 51.16L60.85 50.07ZM65.3 54.05C66.13 52.58 65.62 50.7 64.15 49.86C62.67 49.03 60.8 49.54 59.96 51.01C59.12 52.49 59.64 54.36 61.11 55.2C62.58 56.04 64.46 55.52 65.3 54.05ZM56.37 48.97C57.21 47.5 56.69 45.62 55.22 44.78C53.74 43.95 51.87 44.46 51.03 45.94C50.19 47.41 50.71 49.28 52.18 50.12C53.66 50.96 55.53 50.45 56.37 48.97ZM25.34 37.75L25.94 34.45L24.43 34C24.43 34 25.48 35.07 25.31 35.99C25.14 36.91 23.82 37.34 23.82 37.34L25.34 37.75ZM25.91 34.4L25.31 37.7L26.82 38.15C26.82 38.15 25.77 37.08 25.94 36.16C26.11 35.24 27.42 34.81 27.42 34.81L25.91 34.4ZM29.65 27.09C29.65 27.09 29.96 28.44 29.25 29.05C28.55 29.67 27.09 29.31 27.09 29.31L28.25 30.39L30.78 28.18L29.65 27.09ZM29.32 31.47C29.32 31.47 29.02 30.12 29.72 29.51C30.42 28.89 31.88 29.25 31.88 29.25L30.72 28.17L28.19 30.38L29.32 31.47ZM14.87 37.58L17.37 29.62L16.05 29.52C16.05 29.52 16.53 31.34 15.84 33.55C15.14 35.76 13.53 37.56 13.53 37.56L14.87 37.58ZM17.36 29.53L14.86 37.49L16.18 37.6C16.18 37.6 15.7 35.77 16.4 33.56C17.09 31.35 18.7 29.55 18.7 29.55L17.36 29.53ZM24.63 18.03C24.63 18.03 23.92 20.33 22.37 22.06C20.83 23.78 19.01 24.3 19.01 24.3L19.77 25.39L25.34 19.17L24.63 18.03ZM20.4 26.57C20.4 26.57 21.12 24.26 22.66 22.53C24.21 20.81 26.02 20.29 26.02 20.29L25.26 19.21L19.7 25.42L20.4 26.57ZM24.93 29.73C24.93 29.73 23.51 30.05 22.37 29.4C21.23 28.76 20.78 27.37 20.78 27.37L20.2 28.49L24.31 30.83L24.93 29.73ZM19.55 29.53C19.55 29.53 20.97 29.21 22.11 29.86C23.25 30.51 23.7 31.89 23.7 31.89L24.28 30.77L20.17 28.44L19.55 29.53ZM15.1 25.55C14.26 27.03 14.78 28.9 16.25 29.74C17.73 30.58 19.6 30.06 20.44 28.59C21.28 27.11 20.76 25.24 19.29 24.4C17.81 23.56 15.94 24.08 15.1 25.55ZM24.03 30.63C23.19 32.1 23.71 33.98 25.18 34.82C26.66 35.65 28.53 35.14 29.37 33.66C30.21 32.19 29.69 30.32 28.22 29.48C26.74 28.64 24.87 29.16 24.03 30.63ZM38.15 54.66L34.84 54.06L34.4 55.57C34.4 55.57 35.47 54.53 36.39 54.69C37.31 54.86 37.74 56.18 37.74 56.18L38.15 54.66ZM34.8 54.09L38.1 54.69L38.55 53.18C38.55 53.18 37.48 54.23 36.56 54.06C35.64 53.89 35.21 52.58 35.21 52.58L34.8 54.09ZM27.48 50.35C27.48 50.35 28.84 50.04 29.45 50.75C30.06 51.45 29.71 52.91 29.71 52.91L30.79 51.75L28.58 49.22L27.48 50.35ZM31.87 50.68C31.87 50.68 30.52 50.98 29.91 50.28C29.29 49.57 29.64 48.12 29.64 48.12L28.57 49.28L30.78 51.81L31.87 50.68ZM37.97 65.12L30.02 62.63L29.91 63.95C29.91 63.95 31.74 63.47 33.95 64.16C36.16 64.86 37.96 66.47 37.96 66.47L37.97 65.12ZM29.93 62.64L37.89 65.14L37.99 63.82C37.99 63.82 36.17 64.3 33.96 63.61C31.75 62.91 29.95 61.3 29.95 61.3L29.93 62.64ZM18.43 55.37C18.43 55.37 20.73 56.08 22.46 57.63C24.18 59.17 24.7 60.99 24.7 60.99L25.79 60.22L19.57 54.66L18.43 55.37ZM26.97 59.6C26.97 59.6 24.66 58.88 22.93 57.34C21.21 55.79 20.69 53.98 20.69 53.98L19.61 54.74L25.82 60.3L26.97 59.6ZM30.13 55.07C30.13 55.07 30.45 56.49 29.8 57.63C29.15 58.77 27.77 59.22 27.77 59.22L28.89 59.8L31.23 55.69L30.13 55.07ZM29.93 60.45C29.93 60.45 29.61 59.03 30.26 57.89C30.91 56.75 32.29 56.3 32.29 56.3L31.17 55.72L28.84 59.82L29.93 60.45ZM25.95 64.9C27.42 65.74 29.3 65.22 30.14 63.75C30.98 62.27 30.46 60.4 28.99 59.56C27.51 58.72 25.64 59.24 24.8 60.71C23.96 62.19 24.48 64.06 25.95 64.9ZM31.03 55.97C32.5 56.81 34.38 56.29 35.21 54.82C36.05 53.34 35.54 51.47 34.06 50.63C32.59 49.79 30.71 50.31 29.88 51.78C29.04 53.26 29.55 55.13 31.03 55.97ZM42.25 24.94L45.56 25.54L46 24.03C46 24.03 44.93 25.08 44.01 24.91C43.09 24.74 42.66 23.43 42.66 23.43L42.25 24.94ZM45.6 25.51L42.3 24.91L41.85 26.42C41.85 26.42 42.92 25.37 43.84 25.54C44.76 25.71 45.19 27.03 45.19 27.03L45.6 25.51ZM52.91 29.26C52.91 29.26 51.56 29.56 50.95 28.85C50.33 28.15 50.68 26.7 50.68 26.7L49.61 27.85L51.82 30.38L52.91 29.26ZM48.53 28.92C48.53 28.92 49.88 28.62 50.49 29.32C51.1 30.03 50.75 31.48 50.75 31.48L51.83 30.33L49.62 27.79L48.53 28.92ZM42.42 14.48L50.38 16.97L50.48 15.65C50.48 15.65 48.66 16.13 46.45 15.44C44.24 14.75 42.44 13.13 42.44 13.13L42.42 14.48ZM50.47 16.96L42.51 14.46L42.41 15.78C42.41 15.78 44.23 15.3 46.44 16C48.65 16.69 50.45 18.3 50.45 18.3L50.47 16.96ZM61.97 24.23C61.97 24.23 59.67 23.52 57.94 21.97C56.21 20.43 55.7 18.61 55.7 18.61L54.61 19.38L60.83 24.94L61.97 24.23ZM53.43 20C53.43 20 55.74 20.72 57.46 22.27C59.19 23.81 59.71 25.62 59.71 25.62L60.79 24.86L54.58 19.3L53.43 20ZM50.27 24.53C50.27 24.53 49.95 23.11 50.6 21.97C51.24 20.83 52.63 20.38 52.63 20.38L51.51 19.8L49.17 23.91L50.27 24.53ZM50.46 19.15C50.46 19.15 50.79 20.57 50.14 21.71C49.49 22.85 48.11 23.3 48.11 23.3L49.23 23.88L51.56 19.78L50.46 19.15ZM54.45 14.7C52.97 13.86 51.1 14.38 50.26 15.86C49.42 17.33 49.94 19.2 51.41 20.04C52.89 20.88 54.76 20.36 55.6 18.89C56.44 17.42 55.92 15.54 54.45 14.7ZM49.37 23.63C47.9 22.79 46.02 23.31 45.18 24.78C44.35 26.26 44.86 28.13 46.34 28.97C47.81 29.81 49.68 29.29 50.52 27.82C51.36 26.35 50.84 24.47 49.37 23.63ZM34.64 25.87L37.81 24.76L37.45 23.22C37.45 23.22 37.03 24.66 36.15 24.97C35.27 25.28 34.24 24.35 34.24 24.35L34.64 25.87ZM37.83 24.7L34.66 25.82L35.02 27.35C35.02 27.35 35.43 25.91 36.32 25.61C37.2 25.29 38.22 26.23 38.22 26.23L37.83 24.7ZM46.04 24.35C46.04 24.35 45.01 25.28 44.13 24.97C43.25 24.66 42.84 23.22 42.84 23.22L42.48 24.76L45.65 25.87L46.04 24.35ZM42.06 26.23C42.06 26.23 43.09 25.29 43.97 25.61C44.85 25.91 45.26 27.35 45.26 27.35L45.62 25.82L42.45 24.7L42.06 26.23ZM29.62 16.69L37.76 14.92L37.2 13.72C37.2 13.72 35.85 15.04 33.59 15.53C31.32 16.02 28.97 15.51 28.97 15.51L29.62 16.69ZM37.83 14.87L29.68 16.63L30.25 17.83C30.25 17.83 31.59 16.51 33.86 16.02C36.12 15.53 38.48 16.05 38.48 16.05L37.83 14.87ZM51.43 15.51C51.43 15.51 49.07 16.02 46.81 15.53C44.54 15.04 43.2 13.72 43.2 13.72L42.63 14.92L50.78 16.69L51.43 15.51ZM41.92 16.05C41.92 16.05 44.28 15.53 46.54 16.02C48.8 16.51 50.15 17.83 50.15 17.83L50.72 16.63L42.57 14.87L41.92 16.05ZM41.41 21.55C41.41 21.55 40.42 20.48 40.42 19.16C40.42 17.85 41.41 16.78 41.41 16.78L40.14 16.83L40.14 21.55L41.41 21.55ZM38.92 16.78C38.92 16.78 39.9 17.85 39.9 19.16C39.9 20.48 38.92 21.55 38.92 21.55L40.18 21.5L40.18 16.78L38.92 16.78ZM40.18 10.94C38.48 10.94 37.11 12.32 37.11 14.01C37.11 15.71 38.48 17.08 40.18 17.08C41.88 17.08 43.25 15.71 43.25 14.01C43.25 12.32 41.88 10.94 40.18 10.94ZM40.18 21.21C38.48 21.21 37.11 22.59 37.11 24.28C37.11 25.98 38.48 27.35 40.18 27.35C41.88 27.35 43.25 25.98 43.25 24.28C43.25 22.59 41.88 21.21 40.18 21.21ZM43.25 39.69C43.25 41.38 41.88 42.76 40.18 42.76C38.48 42.76 37.11 41.38 37.11 39.69C37.11 37.99 38.48 36.62 40.18 36.62C41.88 36.62 43.25 37.99 43.25 39.69Z" />
		<path id="Path 2" class="shp1" d="M54.13 34.24L55.24 37.41L56.78 37.05C56.78 37.05 55.34 36.63 55.03 35.75C54.72 34.87 55.65 33.85 55.65 33.85L54.13 34.24ZM55.29 37.43L54.18 34.26L52.65 34.62C52.65 34.62 54.09 35.04 54.4 35.92C54.71 36.8 53.77 37.83 53.77 37.83L55.29 37.43ZM55.65 45.64C55.65 45.64 54.72 44.61 55.03 43.73C55.34 42.85 56.78 42.44 56.78 42.44L55.24 42.08L54.13 45.25L55.65 45.64ZM53.77 41.66C53.77 41.66 54.71 42.69 54.4 43.57C54.09 44.45 52.65 44.86 52.65 44.86L54.18 45.22L55.29 42.05L53.77 41.66ZM63.31 29.22L65.08 37.37L66.28 36.8C66.28 36.8 64.96 35.45 64.47 33.19C63.98 30.93 64.49 28.57 64.49 28.57L63.31 29.22ZM65.13 37.44L63.36 29.28L62.17 29.85C62.17 29.85 63.49 31.2 63.98 33.46C64.47 35.72 63.95 38.08 63.95 38.08L65.13 37.44ZM64.49 51.03C64.49 51.03 63.98 48.68 64.47 46.41C64.96 44.15 66.28 42.8 66.28 42.8L65.08 42.23L63.31 50.38L64.49 51.03ZM63.95 41.52C63.95 41.52 64.47 43.88 63.98 46.14C63.49 48.41 62.17 49.75 62.17 49.75L63.36 50.32L65.13 42.17L63.95 41.52ZM58.45 41.01C58.45 41.01 59.52 40.03 60.84 40.03C62.15 40.03 63.22 41.01 63.22 41.01L63.17 39.75L58.45 39.75L58.45 41.01ZM63.22 38.52C63.22 38.52 62.15 39.5 60.84 39.5C59.52 39.5 58.45 38.52 58.45 38.52L58.5 39.78L63.22 39.78L63.22 38.52ZM69.06 39.78C69.06 38.09 67.68 36.71 65.99 36.71C64.29 36.71 62.92 38.09 62.92 39.78C62.92 41.48 64.29 42.85 65.99 42.85C67.68 42.85 69.06 41.48 69.06 39.78ZM58.79 39.78C58.79 38.09 57.41 36.71 55.72 36.71C54.02 36.71 52.65 38.09 52.65 39.78C52.65 41.48 54.02 42.85 55.72 42.85C57.41 42.85 58.79 41.48 58.79 39.78ZM26.27 45.36L25.16 42.19L23.62 42.55C23.62 42.55 25.06 42.97 25.37 43.85C25.68 44.73 24.75 45.76 24.75 45.76L26.27 45.36ZM25.1 42.17L26.22 45.34L27.75 44.98C27.75 44.98 26.31 44.56 26 43.68C25.69 42.8 26.63 41.78 26.63 41.78L25.1 42.17ZM24.75 33.96C24.75 33.96 25.68 34.99 25.37 35.87C25.06 36.75 23.62 37.16 23.62 37.16L25.16 37.53L26.27 34.36L24.75 33.96ZM26.63 37.94C26.63 37.94 25.69 36.91 26 36.03C26.31 35.15 27.75 34.74 27.75 34.74L26.22 34.38L25.1 37.55L26.63 37.94ZM17.09 50.38L15.32 42.23L14.12 42.8C14.12 42.8 15.44 44.15 15.93 46.41C16.42 48.68 15.91 51.03 15.91 51.03L17.09 50.38ZM15.27 42.17L17.03 50.32L18.23 49.75C18.23 49.75 16.91 48.41 16.42 46.14C15.93 43.88 16.45 41.52 16.45 41.52L15.27 42.17ZM15.91 28.57C15.91 28.57 16.42 30.93 15.93 33.19C15.44 35.45 14.12 36.8 14.12 36.8L15.32 37.37L17.09 29.22L15.91 28.57ZM16.45 38.08C16.45 38.08 15.93 35.72 16.42 33.46C16.91 31.2 18.23 29.85 18.23 29.85L17.03 29.28L15.27 37.44L16.45 38.08ZM21.95 38.59C21.95 38.59 20.87 39.58 19.56 39.58C18.25 39.58 17.18 38.59 17.18 38.59L17.22 39.86L21.95 39.86L21.95 38.59ZM17.18 41.08C17.18 41.08 18.25 40.1 19.56 40.1C20.87 40.1 21.95 41.08 21.95 41.08L21.9 39.82L17.18 39.82L17.18 41.08ZM11.34 39.82C11.34 41.52 12.71 42.89 14.41 42.89C16.11 42.89 17.48 41.52 17.48 39.82C17.48 38.12 16.11 36.75 14.41 36.75C12.71 36.75 11.34 38.12 11.34 39.82ZM21.61 39.82C21.61 41.52 22.99 42.89 24.68 42.89C26.38 42.89 27.75 41.52 27.75 39.82C27.75 38.12 26.38 36.75 24.68 36.75C22.99 36.75 21.61 38.12 21.61 39.82ZM45.76 53.73L42.59 54.84L42.95 56.38C42.95 56.38 43.37 54.94 44.25 54.63C45.13 54.32 46.15 55.25 46.15 55.25L45.76 53.73ZM42.57 54.9L45.74 53.78L45.38 52.25C45.38 52.25 44.96 53.69 44.08 54C43.2 54.31 42.17 53.37 42.17 53.37L42.57 54.9ZM34.36 55.25C34.36 55.25 35.39 54.32 36.27 54.63C37.15 54.94 37.56 56.38 37.56 56.38L37.92 54.84L34.75 53.73L34.36 55.25ZM38.34 53.37C38.34 53.37 37.31 54.31 36.43 54C35.55 53.69 35.14 52.25 35.14 52.25L34.78 53.78L37.95 54.9L38.34 53.37ZM50.78 62.92L42.63 64.68L43.2 65.88C43.2 65.88 44.54 64.56 46.81 64.07C49.07 63.58 51.43 64.1 51.43 64.1L50.78 62.92ZM42.57 64.73L50.72 62.97L50.15 61.77C50.15 61.77 48.8 63.09 46.54 63.58C44.28 64.07 41.92 63.55 41.92 63.55L42.57 64.73ZM28.97 64.1C28.97 64.1 31.32 63.58 33.59 64.07C35.85 64.56 37.2 65.88 37.2 65.88L37.76 64.68L29.62 62.92L28.97 64.1ZM38.48 63.55C38.48 63.55 36.12 64.07 33.86 63.58C31.59 63.09 30.25 61.77 30.25 61.77L29.68 62.97L37.83 64.73L38.48 63.55ZM38.99 58.05C38.99 58.05 39.97 59.12 39.97 60.44C39.97 61.75 38.99 62.82 38.99 62.82L40.25 62.78L40.25 58.05L38.99 58.05ZM41.48 62.82C41.48 62.82 40.5 61.75 40.5 60.44C40.5 59.12 41.48 58.05 41.48 58.05L40.22 58.1L40.22 62.82L41.48 62.82ZM40.22 68.66C41.91 68.66 43.29 67.29 43.29 65.59C43.29 63.89 41.91 62.52 40.22 62.52C38.52 62.52 37.15 63.89 37.15 65.59C37.15 67.29 38.52 68.66 40.22 68.66ZM40.22 58.39C41.91 58.39 43.29 57.02 43.29 55.32C43.29 53.62 41.91 52.25 40.22 52.25C38.52 52.25 37.15 53.62 37.15 55.32C37.15 57.02 38.52 58.39 40.22 58.39ZM52 49.05L49.82 51.61L50.9 52.75C50.9 52.75 50.54 51.3 51.15 50.59C51.75 49.88 53.11 50.17 53.11 50.17L52 49.05ZM49.83 51.66L52.01 49.11L50.93 47.96C50.93 47.96 51.29 49.42 50.69 50.13C50.08 50.84 48.72 50.54 48.72 50.54L49.83 51.66ZM42.91 56.1C42.91 56.1 43.33 54.77 44.25 54.6C45.16 54.42 46.24 55.46 46.24 55.46L45.79 53.95L42.49 54.58L42.91 56.1ZM45.41 52.47C45.41 52.47 44.99 53.79 44.07 53.97C43.15 54.14 42.07 53.11 42.07 53.11L42.53 54.62L45.83 53.99L45.41 52.47ZM60.96 54.47L54.8 60.09L55.89 60.85C55.89 60.85 56.39 59.03 58.1 57.47C59.81 55.9 62.11 55.17 62.11 55.17L60.96 54.47ZM54.77 60.17L60.93 54.55L59.84 53.8C59.84 53.8 59.34 55.62 57.62 57.18C55.91 58.74 53.61 59.48 53.61 59.48L54.77 60.17ZM42.69 66.45C42.69 66.45 44.47 64.82 46.67 64.11C48.88 63.39 50.7 63.86 50.7 63.86L50.59 62.54L42.66 65.1L42.69 66.45ZM50.64 61.2C50.64 61.2 48.86 62.83 46.66 63.55C44.45 64.26 42.63 63.79 42.63 63.79L42.74 65.12L50.67 62.55L50.64 61.2ZM48.32 56.19C48.32 56.19 49.71 56.62 50.37 57.76C51.03 58.89 50.72 60.32 50.72 60.32L51.79 59.64L49.41 55.55L48.32 56.19ZM52.87 59.07C52.87 59.07 51.48 58.63 50.82 57.5C50.16 56.36 50.47 54.94 50.47 54.94L49.41 55.62L51.78 59.7L52.87 59.07ZM54.71 64.75C56.18 63.9 56.67 62.02 55.82 60.55C54.97 59.08 53.09 58.59 51.63 59.44C50.16 60.29 49.66 62.17 50.51 63.63C51.37 65.1 53.24 65.6 54.71 64.75ZM49.55 55.87C51.02 55.01 51.52 53.13 50.67 51.67C49.81 50.2 47.93 49.7 46.47 50.55C45 51.41 44.5 53.29 45.36 54.75C46.21 56.22 48.09 56.72 49.55 55.87ZM28.39 30.55L30.58 27.99L29.49 26.85C29.49 26.85 29.86 28.3 29.25 29.01C28.65 29.72 27.29 29.43 27.29 29.43L28.39 30.55ZM30.57 27.94L28.39 30.49L29.47 31.64C29.47 31.64 29.1 30.19 29.71 29.47C30.32 28.77 31.67 29.06 31.67 29.06L30.57 27.94ZM37.49 23.51C37.49 23.51 37.07 24.83 36.15 25C35.23 25.18 34.15 24.14 34.15 24.14L34.61 25.65L37.91 25.02L37.49 23.51ZM34.99 27.13C34.99 27.13 35.41 25.81 36.33 25.63C37.24 25.46 38.33 26.49 38.33 26.49L37.87 24.99L34.57 25.62L34.99 27.13ZM19.44 25.13L25.6 19.51L24.51 18.76C24.51 18.76 24.01 20.57 22.29 22.14C20.58 23.7 18.28 24.44 18.28 24.44L19.44 25.13ZM25.63 19.43L19.47 25.05L20.56 25.8C20.56 25.8 21.06 23.99 22.77 22.42C24.49 20.86 26.79 20.12 26.79 20.12L25.63 19.43ZM37.71 13.15C37.71 13.15 35.93 14.78 33.73 15.5C31.52 16.21 29.69 15.75 29.69 15.75L29.81 17.06L37.74 14.5L37.71 13.15ZM29.76 18.4C29.76 18.4 31.54 16.77 33.74 16.05C35.94 15.34 37.77 15.81 37.77 15.81L37.66 14.49L29.72 17.05L29.76 18.4ZM32.08 23.41C32.08 23.41 30.69 22.98 30.03 21.84C29.37 20.71 29.68 19.28 29.68 19.28L28.61 19.96L30.99 24.05L32.08 23.41ZM27.53 20.53C27.53 20.53 28.92 20.97 29.58 22.11C30.24 23.24 29.92 24.66 29.92 24.66L30.99 23.99L28.62 19.9L27.53 20.53ZM25.69 14.86C24.22 15.71 23.72 17.59 24.58 19.05C25.43 20.52 27.31 21.02 28.77 20.16C30.24 19.31 30.74 17.43 29.88 15.97C29.03 14.5 27.15 14 25.69 14.86ZM30.85 23.74C29.38 24.59 28.88 26.47 29.73 27.93C30.59 29.4 32.46 29.9 33.93 29.05C35.4 28.2 35.89 26.32 35.04 24.85C34.19 23.38 32.31 22.88 30.85 23.74ZM30.95 51.61L28.39 49.42L27.25 50.51C27.25 50.51 28.7 50.14 29.41 50.75C30.12 51.35 29.83 52.71 29.83 52.71L30.95 51.61ZM28.34 49.43L30.89 51.61L32.04 50.53C32.04 50.53 30.58 50.89 29.87 50.29C29.16 49.68 29.46 48.33 29.46 48.33L28.34 49.43ZM23.9 42.51C23.9 42.51 25.23 42.93 25.4 43.85C25.58 44.77 24.54 45.85 24.54 45.85L26.05 45.39L25.42 42.09L23.9 42.51ZM27.53 45.01C27.53 45.01 26.21 44.59 26.03 43.67C25.86 42.76 26.89 41.67 26.89 41.67L25.38 42.13L26.01 45.43L27.53 45.01ZM25.53 60.56L19.91 54.4L19.15 55.49C19.15 55.49 20.97 55.99 22.53 57.7C24.1 59.42 24.83 61.72 24.83 61.72L25.53 60.56ZM19.83 54.37L25.45 60.53L26.2 59.44C26.2 59.44 24.38 58.94 22.82 57.23C21.26 55.51 20.52 53.21 20.52 53.21L19.83 54.37ZM13.55 42.29C13.55 42.29 15.18 44.07 15.89 46.27C16.61 48.48 16.14 50.31 16.14 50.31L17.46 50.19L14.9 42.26L13.55 42.29ZM18.8 50.24C18.8 50.24 17.17 48.46 16.45 46.26C15.74 44.05 16.21 42.23 16.21 42.23L14.89 42.34L17.45 50.28L18.8 50.24ZM23.81 47.92C23.81 47.92 23.38 49.31 22.24 49.97C21.11 50.63 19.68 50.32 19.68 50.32L20.36 51.39L24.44 49.01L23.81 47.92ZM20.93 52.47C20.93 52.47 21.37 51.08 22.5 50.42C23.64 49.77 25.06 50.08 25.06 50.08L24.38 49.01L20.3 51.38L20.93 52.47ZM15.25 54.31C16.1 55.78 17.98 56.28 19.45 55.43C20.92 54.57 21.41 52.7 20.56 51.23C19.71 49.76 17.83 49.26 16.37 50.11C14.9 50.97 14.4 52.85 15.25 54.31ZM24.13 49.15C24.99 50.62 26.87 51.12 28.33 50.27C29.8 49.42 30.3 47.53 29.44 46.07C28.59 44.6 26.71 44.11 25.25 44.96C23.78 45.81 23.28 47.69 24.13 49.15ZM49.45 28L52 30.18L53.15 29.1C53.15 29.1 51.7 29.46 50.99 28.85C50.28 28.25 50.57 26.89 50.57 26.89L49.45 28ZM52.06 30.17L49.51 27.99L48.36 29.07C48.36 29.07 49.82 28.71 50.52 29.31C51.23 29.92 50.94 31.28 50.94 31.28L52.06 30.17ZM56.49 37.09C56.49 37.09 55.17 36.67 55 35.75C54.82 34.84 55.86 33.76 55.86 33.76L54.35 34.21L54.98 37.52L56.49 37.09ZM52.87 34.59C52.87 34.59 54.19 35.01 54.37 35.93C54.54 36.85 53.51 37.93 53.51 37.93L55.01 37.47L54.38 34.17L52.87 34.59ZM54.87 19.04L60.49 25.2L61.24 24.11C61.24 24.11 59.43 23.61 57.86 21.9C56.3 20.19 55.57 17.89 55.57 17.89L54.87 19.04ZM60.57 25.23L54.95 19.07L54.2 20.16C54.2 20.16 56.01 20.66 57.58 22.38C59.14 24.09 59.88 26.39 59.88 26.39L60.57 25.23ZM66.85 37.31C66.85 37.31 65.22 35.53 64.5 33.33C63.79 31.12 64.25 29.29 64.25 29.29L62.94 29.41L65.5 37.35L66.85 37.31ZM61.6 29.36C61.6 29.36 63.23 31.14 63.95 33.34C64.66 35.55 64.19 37.37 64.19 37.37L65.51 37.26L62.95 29.33L61.6 29.36ZM56.59 31.68C56.59 31.68 57.02 30.29 58.16 29.63C59.29 28.97 60.72 29.28 60.72 29.28L60.04 28.21L55.95 30.59L56.59 31.68ZM59.46 27.13C59.46 27.13 59.03 28.52 57.89 29.18C56.76 29.84 55.34 29.53 55.34 29.53L56.01 30.59L60.1 28.22L59.46 27.13ZM65.15 25.29C64.29 23.82 62.42 23.32 60.95 24.18C59.48 25.03 58.98 26.91 59.84 28.37C60.69 29.84 62.57 30.34 64.03 29.49C65.5 28.63 66 26.76 65.15 25.29ZM56.26 30.45C55.41 28.98 53.53 28.48 52.07 29.34C50.6 30.19 50.1 32.07 50.95 33.53C51.81 35 53.68 35.5 55.15 34.64C56.62 33.79 57.12 31.91 56.26 30.45ZM55.06 41.85L54.46 45.16L55.97 45.6C55.97 45.6 54.92 44.53 55.09 43.61C55.26 42.7 56.58 42.26 56.58 42.26L55.06 41.85ZM54.49 45.2L55.09 41.9L53.58 41.45C53.58 41.45 54.63 42.52 54.46 43.44C54.29 44.36 52.97 44.79 52.97 44.79L54.49 45.2ZM50.75 52.52C50.75 52.52 50.44 51.16 51.15 50.55C51.85 49.94 53.31 50.29 53.31 50.29L52.15 49.21L49.62 51.42L50.75 52.52ZM51.08 48.13C51.08 48.13 51.38 49.48 50.68 50.09C49.97 50.71 48.52 50.36 48.52 50.36L49.67 51.43L52.21 49.22L51.08 48.13ZM65.52 42.03L63.03 49.98L64.35 50.09C64.35 50.09 63.87 48.26 64.56 46.05C65.25 43.84 66.87 42.04 66.87 42.04L65.52 42.03ZM63.04 50.07L65.54 42.11L64.21 42.01C64.21 42.01 64.7 43.83 64 46.04C63.31 48.25 61.69 50.05 61.69 50.05L63.04 50.07ZM55.76 61.57C55.76 61.57 56.48 59.27 58.03 57.54C59.57 55.82 61.39 55.3 61.39 55.3L60.62 54.21L55.06 60.43L55.76 61.57ZM60 53.03C60 53.03 59.28 55.34 57.73 57.07C56.19 58.79 54.38 59.31 54.38 59.31L55.14 60.39L60.7 54.18L60 53.03ZM55.47 49.87C55.47 49.87 56.89 49.55 58.03 50.2C59.17 50.85 59.62 52.23 59.62 52.23L60.2 51.11L56.09 48.78L55.47 49.87ZM60.85 50.07C60.85 50.07 59.43 50.39 58.29 49.74C57.15 49.09 56.7 47.71 56.7 47.71L56.12 48.83L60.22 51.16L60.85 50.07ZM65.3 54.05C66.13 52.58 65.62 50.7 64.15 49.86C62.67 49.03 60.8 49.54 59.96 51.01C59.12 52.49 59.64 54.36 61.11 55.2C62.58 56.04 64.46 55.52 65.3 54.05ZM56.37 48.97C57.21 47.5 56.69 45.62 55.22 44.78C53.74 43.95 51.87 44.46 51.03 45.94C50.19 47.41 50.71 49.28 52.18 50.12C53.66 50.96 55.53 50.45 56.37 48.97ZM25.34 37.75L25.94 34.45L24.43 34C24.43 34 25.48 35.07 25.31 35.99C25.14 36.91 23.82 37.34 23.82 37.34L25.34 37.75ZM25.91 34.4L25.31 37.7L26.82 38.15C26.82 38.15 25.77 37.08 25.94 36.16C26.11 35.24 27.42 34.81 27.42 34.81L25.91 34.4ZM29.65 27.09C29.65 27.09 29.96 28.44 29.25 29.05C28.55 29.67 27.09 29.31 27.09 29.31L28.25 30.39L30.78 28.18L29.65 27.09ZM29.32 31.47C29.32 31.47 29.02 30.12 29.72 29.51C30.42 28.89 31.88 29.25 31.88 29.25L30.72 28.17L28.19 30.38L29.32 31.47ZM14.87 37.58L17.37 29.62L16.05 29.52C16.05 29.52 16.53 31.34 15.84 33.55C15.14 35.76 13.53 37.56 13.53 37.56L14.87 37.58ZM17.36 29.53L14.86 37.49L16.18 37.6C16.18 37.6 15.7 35.77 16.4 33.56C17.09 31.35 18.7 29.55 18.7 29.55L17.36 29.53ZM24.63 18.03C24.63 18.03 23.92 20.33 22.37 22.06C20.83 23.78 19.01 24.3 19.01 24.3L19.77 25.39L25.34 19.17L24.63 18.03ZM20.4 26.57C20.4 26.57 21.12 24.26 22.66 22.53C24.21 20.81 26.02 20.29 26.02 20.29L25.26 19.21L19.7 25.42L20.4 26.57ZM24.93 29.73C24.93 29.73 23.51 30.05 22.37 29.4C21.23 28.76 20.78 27.37 20.78 27.37L20.2 28.49L24.31 30.83L24.93 29.73ZM19.55 29.53C19.55 29.53 20.97 29.21 22.11 29.86C23.25 30.51 23.7 31.89 23.7 31.89L24.28 30.77L20.17 28.44L19.55 29.53ZM15.1 25.55C14.26 27.03 14.78 28.9 16.25 29.74C17.73 30.58 19.6 30.06 20.44 28.59C21.28 27.11 20.76 25.24 19.29 24.4C17.81 23.56 15.94 24.08 15.1 25.55ZM24.03 30.63C23.19 32.1 23.71 33.98 25.18 34.82C26.66 35.65 28.53 35.14 29.37 33.66C30.21 32.19 29.69 30.32 28.22 29.48C26.74 28.64 24.87 29.16 24.03 30.63ZM38.15 54.66L34.84 54.06L34.4 55.57C34.4 55.57 35.47 54.53 36.39 54.69C37.31 54.86 37.74 56.18 37.74 56.18L38.15 54.66ZM34.8 54.09L38.1 54.69L38.55 53.18C38.55 53.18 37.48 54.23 36.56 54.06C35.64 53.89 35.21 52.58 35.21 52.58L34.8 54.09ZM27.48 50.35C27.48 50.35 28.84 50.04 29.45 50.75C30.06 51.45 29.71 52.91 29.71 52.91L30.79 51.75L28.58 49.22L27.48 50.35ZM31.87 50.68C31.87 50.68 30.52 50.98 29.91 50.28C29.29 49.57 29.64 48.12 29.64 48.12L28.57 49.28L30.78 51.81L31.87 50.68ZM37.97 65.12L30.02 62.63L29.91 63.95C29.91 63.95 31.74 63.47 33.95 64.16C36.16 64.86 37.96 66.47 37.96 66.47L37.97 65.12ZM29.93 62.64L37.89 65.14L37.99 63.82C37.99 63.82 36.17 64.3 33.96 63.61C31.75 62.91 29.95 61.3 29.95 61.3L29.93 62.64ZM18.43 55.37C18.43 55.37 20.73 56.08 22.46 57.63C24.18 59.17 24.7 60.99 24.7 60.99L25.79 60.22L19.57 54.66L18.43 55.37ZM26.97 59.6C26.97 59.6 24.66 58.88 22.93 57.34C21.21 55.79 20.69 53.98 20.69 53.98L19.61 54.74L25.82 60.3L26.97 59.6ZM30.13 55.07C30.13 55.07 30.45 56.49 29.8 57.63C29.15 58.77 27.77 59.22 27.77 59.22L28.89 59.8L31.23 55.69L30.13 55.07ZM29.93 60.45C29.93 60.45 29.61 59.03 30.26 57.89C30.91 56.75 32.29 56.3 32.29 56.3L31.17 55.72L28.84 59.82L29.93 60.45ZM25.95 64.9C27.42 65.74 29.3 65.22 30.14 63.75C30.98 62.27 30.46 60.4 28.99 59.56C27.51 58.72 25.64 59.24 24.8 60.71C23.96 62.19 24.48 64.06 25.95 64.9ZM31.03 55.97C32.5 56.81 34.38 56.29 35.21 54.82C36.05 53.34 35.54 51.47 34.06 50.63C32.59 49.79 30.71 50.31 29.88 51.78C29.04 53.26 29.55 55.13 31.03 55.97ZM42.25 24.94L45.56 25.54L46 24.03C46 24.03 44.93 25.08 44.01 24.91C43.09 24.74 42.66 23.43 42.66 23.43L42.25 24.94ZM45.6 25.51L42.3 24.91L41.85 26.42C41.85 26.42 42.92 25.37 43.84 25.54C44.76 25.71 45.19 27.03 45.19 27.03L45.6 25.51ZM52.91 29.26C52.91 29.26 51.56 29.56 50.95 28.85C50.33 28.15 50.68 26.7 50.68 26.7L49.61 27.85L51.82 30.38L52.91 29.26ZM48.53 28.92C48.53 28.92 49.88 28.62 50.49 29.32C51.1 30.03 50.75 31.48 50.75 31.48L51.83 30.33L49.62 27.79L48.53 28.92ZM42.42 14.48L50.38 16.97L50.48 15.65C50.48 15.65 48.66 16.13 46.45 15.44C44.24 14.75 42.44 13.13 42.44 13.13L42.42 14.48ZM50.47 16.96L42.51 14.46L42.41 15.78C42.41 15.78 44.23 15.3 46.44 16C48.65 16.69 50.45 18.3 50.45 18.3L50.47 16.96ZM61.97 24.23C61.97 24.23 59.67 23.52 57.94 21.97C56.21 20.43 55.7 18.61 55.7 18.61L54.61 19.38L60.83 24.94L61.97 24.23ZM53.43 20C53.43 20 55.74 20.72 57.46 22.27C59.19 23.81 59.71 25.62 59.71 25.62L60.79 24.86L54.58 19.3L53.43 20ZM50.27 24.53C50.27 24.53 49.95 23.11 50.6 21.97C51.24 20.83 52.63 20.38 52.63 20.38L51.51 19.8L49.17 23.91L50.27 24.53ZM50.46 19.15C50.46 19.15 50.79 20.57 50.14 21.71C49.49 22.85 48.11 23.3 48.11 23.3L49.23 23.88L51.56 19.78L50.46 19.15ZM54.45 14.7C52.97 13.86 51.1 14.38 50.26 15.86C49.42 17.33 49.94 19.2 51.41 20.04C52.89 20.88 54.76 20.36 55.6 18.89C56.44 17.42 55.92 15.54 54.45 14.7ZM49.37 23.63C47.9 22.79 46.02 23.31 45.18 24.78C44.35 26.26 44.86 28.13 46.34 28.97C47.81 29.81 49.68 29.29 50.52 27.82C51.36 26.35 50.84 24.47 49.37 23.63ZM34.64 25.87L37.81 24.76L37.45 23.22C37.45 23.22 37.03 24.66 36.15 24.97C35.27 25.28 34.24 24.35 34.24 24.35L34.64 25.87ZM37.83 24.7L34.66 25.82L35.02 27.35C35.02 27.35 35.43 25.91 36.32 25.61C37.2 25.29 38.22 26.23 38.22 26.23L37.83 24.7ZM46.04 24.35C46.04 24.35 45.01 25.28 44.13 24.97C43.25 24.66 42.84 23.22 42.84 23.22L42.48 24.76L45.65 25.87L46.04 24.35ZM42.06 26.23C42.06 26.23 43.09 25.29 43.97 25.61C44.85 25.91 45.26 27.35 45.26 27.35L45.62 25.82L42.45 24.7L42.06 26.23ZM29.62 16.69L37.76 14.92L37.2 13.72C37.2 13.72 35.85 15.04 33.59 15.53C31.32 16.02 28.97 15.51 28.97 15.51L29.62 16.69ZM37.83 14.87L29.68 16.63L30.25 17.83C30.25 17.83 31.59 16.51 33.86 16.02C36.12 15.53 38.48 16.05 38.48 16.05L37.83 14.87ZM51.43 15.51C51.43 15.51 49.07 16.02 46.81 15.53C44.54 15.04 43.2 13.72 43.2 13.72L42.63 14.92L50.78 16.69L51.43 15.51ZM41.92 16.05C41.92 16.05 44.28 15.53 46.54 16.02C48.8 16.51 50.15 17.83 50.15 17.83L50.72 16.63L42.57 14.87L41.92 16.05ZM41.41 21.55C41.41 21.55 40.42 20.48 40.42 19.16C40.42 17.85 41.41 16.78 41.41 16.78L40.14 16.83L40.14 21.55L41.41 21.55ZM38.92 16.78C38.92 16.78 39.9 17.85 39.9 19.16C39.9 20.48 38.92 21.55 38.92 21.55L40.18 21.5L40.18 16.78L38.92 16.78ZM40.18 10.94C38.48 10.94 37.11 12.32 37.11 14.01C37.11 15.71 38.48 17.08 40.18 17.08C41.88 17.08 43.25 15.71 43.25 14.01C43.25 12.32 41.88 10.94 40.18 10.94ZM40.18 21.21C38.48 21.21 37.11 22.59 37.11 24.28C37.11 25.98 38.48 27.35 40.18 27.35C41.88 27.35 43.25 25.98 43.25 24.28C43.25 22.59 41.88 21.21 40.18 21.21ZM43.25 39.69C43.25 41.38 41.88 42.76 40.18 42.76C38.48 42.76 37.11 41.38 37.11 39.69C37.11 37.99 38.48 36.62 40.18 36.62C41.88 36.62 43.25 37.99 43.25 39.69Z" />
		<path id="Path 3" class="shp2" d="M43.25 39.69C43.25 41.39 41.88 42.76 40.18 42.76C38.48 42.76 37.11 41.39 37.11 39.69C37.11 37.99 38.48 36.62 40.18 36.62C41.88 36.62 43.25 37.99 43.25 39.69ZM43.25 24.28C43.25 25.98 41.88 27.35 40.18 27.35C38.48 27.35 37.11 25.98 37.11 24.28C37.11 22.59 38.48 21.21 40.18 21.21C41.88 21.21 43.25 22.59 43.25 24.28ZM43.25 14.01C43.25 15.71 41.88 17.08 40.18 17.08C38.48 17.08 37.11 15.71 37.11 14.01C37.11 12.32 38.48 10.94 40.18 10.94C41.88 10.94 43.25 12.32 43.25 14.01ZM40.18 16.78L40.18 21.5L38.92 21.55C38.92 21.55 39.9 20.48 39.9 19.16C39.9 17.85 38.92 16.78 38.92 16.78L40.18 16.78ZM40.14 21.55L40.14 16.83L41.41 16.78C41.41 16.78 40.42 17.85 40.42 19.17C40.42 20.48 41.41 21.55 41.41 21.55L40.14 21.55ZM42.56 14.87L50.71 16.64L50.15 17.83C50.15 17.83 48.8 16.51 46.54 16.02C44.27 15.53 41.91 16.05 41.91 16.05L42.56 14.87ZM50.78 16.69L42.63 14.92L43.2 13.72C43.2 13.72 44.54 15.04 46.81 15.53C49.07 16.02 51.43 15.51 51.43 15.51L50.78 16.69ZM37.83 14.87L29.68 16.64L30.25 17.83C30.25 17.83 31.59 16.51 33.86 16.02C36.12 15.53 38.48 16.05 38.48 16.05L37.83 14.87ZM29.61 16.69L37.76 14.92L37.2 13.72C37.2 13.72 35.85 15.04 33.59 15.53C31.32 16.02 28.96 15.51 28.96 15.51L29.61 16.69ZM42.45 24.71L45.62 25.82L45.26 27.35C45.26 27.35 44.85 25.91 43.97 25.61C43.09 25.3 42.06 26.23 42.06 26.23L42.45 24.71ZM45.64 25.87L42.47 24.76L42.83 23.23C42.83 23.23 43.25 24.66 44.13 24.97C45.01 25.28 46.04 24.35 46.04 24.35L45.64 25.87ZM37.83 24.71L34.66 25.82L35.02 27.35C35.02 27.35 35.43 25.91 36.32 25.61C37.2 25.3 38.22 26.23 38.22 26.23L37.83 24.71ZM34.64 25.87L37.81 24.76L37.45 23.23C37.45 23.23 37.03 24.66 36.15 24.97C35.27 25.28 34.24 24.35 34.24 24.35L34.64 25.87ZM50.52 27.82C49.68 29.29 47.81 29.81 46.33 28.97C44.86 28.13 44.34 26.26 45.18 24.78C46.02 23.31 47.9 22.79 49.37 23.63C50.84 24.47 51.36 26.35 50.52 27.82ZM55.6 18.89C54.76 20.36 52.89 20.88 51.41 20.04C49.94 19.2 49.42 17.33 50.26 15.86C51.1 14.38 52.97 13.87 54.45 14.7C55.92 15.54 56.44 17.42 55.6 18.89ZM51.56 19.78L49.23 23.88L48.1 23.3C48.1 23.3 49.49 22.85 50.14 21.71C50.79 20.57 50.46 19.15 50.46 19.15L51.56 19.78ZM49.17 23.91L51.51 19.8L52.63 20.38C52.63 20.38 51.24 20.83 50.59 21.97C49.95 23.11 50.27 24.53 50.27 24.53L49.17 23.91ZM54.58 19.3L60.79 24.86L59.71 25.63C59.71 25.63 59.19 23.81 57.46 22.27C55.74 20.72 53.43 20.01 53.43 20.01L54.58 19.3ZM60.82 24.94L54.61 19.38L55.69 18.61C55.69 18.61 56.21 20.43 57.94 21.97C59.67 23.52 61.97 24.23 61.97 24.23L60.82 24.94ZM50.47 16.96L42.51 14.47L42.41 15.79C42.41 15.79 44.23 15.31 46.44 16C48.65 16.69 50.45 18.31 50.45 18.31L50.47 16.96ZM42.42 14.48L50.38 16.97L50.48 15.65C50.48 15.65 48.66 16.13 46.45 15.44C44.24 14.75 42.44 13.13 42.44 13.13L42.42 14.48ZM49.62 27.79L51.83 30.33L50.75 31.48C50.75 31.48 51.1 30.03 50.49 29.32C49.88 28.62 48.53 28.92 48.53 28.92L49.62 27.79ZM51.82 30.39L49.61 27.85L50.68 26.7C50.68 26.7 50.33 28.15 50.95 28.85C51.56 29.56 52.91 29.26 52.91 29.26L51.82 30.39ZM45.6 25.51L42.29 24.91L41.85 26.42C41.85 26.42 42.92 25.38 43.84 25.54C44.76 25.71 45.19 27.03 45.19 27.03L45.6 25.51ZM42.25 24.94L45.56 25.54L46 24.03C46 24.03 44.93 25.08 44.01 24.91C43.09 24.74 42.66 23.43 42.66 23.43L42.25 24.94ZM29.88 51.78C30.71 50.31 32.59 49.79 34.06 50.63C35.54 51.47 36.05 53.34 35.21 54.82C34.38 56.29 32.5 56.81 31.03 55.97C29.55 55.13 29.04 53.26 29.88 51.78ZM24.8 60.71C25.64 59.24 27.51 58.72 28.98 59.56C30.46 60.4 30.97 62.27 30.14 63.75C29.3 65.22 27.42 65.74 25.95 64.9C24.48 64.06 23.96 62.19 24.8 60.71ZM28.83 59.82L31.17 55.72L32.29 56.3C32.29 56.3 30.91 56.75 30.26 57.89C29.61 59.03 29.93 60.45 29.93 60.45L28.83 59.82ZM31.22 55.69L28.89 59.8L27.77 59.22C27.77 59.22 29.15 58.77 29.8 57.63C30.45 56.49 30.13 55.07 30.13 55.07L31.22 55.69ZM25.82 60.3L19.61 54.74L20.69 53.98C20.69 53.98 21.21 55.79 22.93 57.34C24.66 58.88 26.97 59.6 26.97 59.6L25.82 60.3ZM19.57 54.66L25.78 60.22L24.7 60.99C24.7 60.99 24.18 59.17 22.46 57.63C20.73 56.08 18.42 55.37 18.42 55.37L19.57 54.66ZM29.93 62.64L37.89 65.14L37.99 63.82C37.99 63.82 36.17 64.3 33.96 63.6C31.75 62.91 29.95 61.3 29.95 61.3L29.93 62.64ZM37.97 65.13L30.02 62.63L29.91 63.95C29.91 63.95 31.74 63.47 33.95 64.17C36.16 64.86 37.96 66.47 37.96 66.47L37.97 65.13ZM30.78 51.81L28.57 49.28L29.64 48.12C29.64 48.12 29.29 49.58 29.91 50.28C30.52 50.98 31.87 50.68 31.87 50.68L30.78 51.81ZM28.58 49.22L30.79 51.75L29.71 52.91C29.71 52.91 30.06 51.45 29.45 50.75C28.84 50.04 27.48 50.35 27.48 50.35L28.58 49.22ZM34.8 54.09L38.1 54.69L38.55 53.18C38.55 53.18 37.48 54.23 36.56 54.06C35.64 53.89 35.21 52.58 35.21 52.58L34.8 54.09ZM38.15 54.66L34.84 54.06L34.4 55.57C34.4 55.57 35.47 54.53 36.39 54.69C37.31 54.86 37.74 56.18 37.74 56.18L38.15 54.66ZM28.22 29.48C29.69 30.32 30.21 32.19 29.37 33.66C28.53 35.14 26.66 35.66 25.18 34.82C23.71 33.98 23.19 32.1 24.03 30.63C24.87 29.16 26.74 28.64 28.22 29.48ZM19.29 24.4C20.76 25.24 21.28 27.11 20.44 28.59C19.6 30.06 17.73 30.58 16.25 29.74C14.78 28.9 14.26 27.03 15.1 25.55C15.94 24.08 17.81 23.56 19.29 24.4ZM20.17 28.44L24.28 30.77L23.7 31.9C23.7 31.9 23.25 30.51 22.11 29.86C20.97 29.21 19.55 29.54 19.55 29.54L20.17 28.44ZM24.31 30.83L20.2 28.49L20.78 27.37C20.78 27.37 21.23 28.76 22.37 29.4C23.51 30.05 24.93 29.73 24.93 29.73L24.31 30.83ZM19.7 25.42L25.26 19.21L26.02 20.29C26.02 20.29 24.21 20.81 22.66 22.54C21.12 24.26 20.4 26.57 20.4 26.57L19.7 25.42ZM25.34 19.17L19.77 25.39L19.01 24.3C19.01 24.3 20.83 23.79 22.37 22.06C23.92 20.33 24.63 18.03 24.63 18.03L25.34 19.17ZM17.36 29.54L14.86 37.49L16.18 37.6C16.18 37.6 15.7 35.77 16.39 33.56C17.09 31.35 18.7 29.55 18.7 29.55L17.36 29.54ZM14.87 37.58L17.37 29.62L16.05 29.52C16.05 29.52 16.53 31.34 15.84 33.55C15.14 35.76 13.53 37.56 13.53 37.56L14.87 37.58ZM28.19 30.38L30.72 28.17L31.88 29.25C31.88 29.25 30.42 28.9 29.72 29.51C29.02 30.12 29.32 31.48 29.32 31.48L28.19 30.38ZM30.78 28.18L28.25 30.39L27.09 29.31C27.09 29.31 28.55 29.67 29.25 29.05C29.95 28.44 29.65 27.09 29.65 27.09L30.78 28.18ZM25.9 34.4L25.3 37.7L26.82 38.15C26.82 38.15 25.77 37.08 25.94 36.16C26.1 35.24 27.42 34.81 27.42 34.81L25.9 34.4ZM25.34 37.75L25.94 34.45L24.43 34C24.43 34 25.47 35.07 25.31 35.99C25.14 36.91 23.82 37.34 23.82 37.34L25.34 37.75ZM52.18 50.12C50.71 49.29 50.19 47.41 51.03 45.94C51.87 44.46 53.74 43.95 55.22 44.79C56.69 45.63 57.2 47.5 56.37 48.97C55.53 50.45 53.65 50.96 52.18 50.12ZM61.11 55.2C59.64 54.36 59.12 52.49 59.96 51.01C60.8 49.54 62.67 49.03 64.15 49.86C65.62 50.7 66.13 52.58 65.3 54.05C64.46 55.52 62.58 56.04 61.11 55.2ZM60.22 51.16L56.12 48.83L56.7 47.71C56.7 47.71 57.14 49.09 58.29 49.74C59.43 50.39 60.85 50.07 60.85 50.07L60.22 51.16ZM56.09 48.78L60.2 51.11L59.62 52.23C59.62 52.23 59.17 50.85 58.03 50.2C56.89 49.55 55.47 49.87 55.47 49.87L56.09 48.78ZM60.7 54.18L55.14 60.39L54.37 59.31C54.37 59.31 56.19 58.79 57.73 57.07C59.28 55.34 60 53.03 60 53.03L60.7 54.18ZM55.06 60.43L60.62 54.22L61.39 55.3C61.39 55.3 59.57 55.82 58.03 57.54C56.48 59.27 55.76 61.57 55.76 61.57L55.06 60.43ZM63.04 50.07L65.53 42.11L64.21 42.01C64.21 42.01 64.7 43.83 64 46.04C63.31 48.25 61.69 50.05 61.69 50.05L63.04 50.07ZM65.52 42.03L63.03 49.98L64.35 50.09C64.35 50.09 63.87 48.26 64.56 46.05C65.25 43.84 66.87 42.05 66.87 42.05L65.52 42.03ZM52.21 49.22L49.67 51.43L48.52 50.36C48.52 50.36 49.97 50.71 50.68 50.1C51.38 49.48 51.08 48.13 51.08 48.13L52.21 49.22ZM49.61 51.42L52.15 49.21L53.3 50.29C53.3 50.29 51.85 49.94 51.14 50.55C50.44 51.16 50.74 52.52 50.74 52.52L49.61 51.42ZM54.49 45.2L55.09 41.9L53.58 41.45C53.58 41.45 54.63 42.52 54.46 43.44C54.29 44.36 52.97 44.79 52.97 44.79L54.49 45.2ZM55.06 41.85L54.46 45.16L55.97 45.6C55.97 45.6 54.92 44.53 55.09 43.61C55.26 42.7 56.57 42.26 56.57 42.26L55.06 41.85ZM55.15 34.65C53.68 35.5 51.81 35 50.95 33.53C50.1 32.07 50.6 30.19 52.07 29.34C53.53 28.49 55.41 28.98 56.26 30.45C57.11 31.92 56.62 33.79 55.15 34.65ZM64.03 29.49C62.57 30.34 60.69 29.84 59.84 28.37C58.98 26.91 59.48 25.03 60.95 24.18C62.41 23.32 64.29 23.82 65.15 25.29C66 26.76 65.5 28.63 64.03 29.49ZM60.1 28.22L56.01 30.6L55.34 29.53C55.34 29.53 56.76 29.84 57.89 29.18C59.03 28.52 59.46 27.13 59.46 27.13L60.1 28.22ZM55.95 30.59L60.04 28.21L60.72 29.28C60.72 29.28 59.29 28.97 58.16 29.63C57.02 30.29 56.59 31.68 56.59 31.68L55.95 30.59ZM62.95 29.33L65.51 37.26L64.19 37.37C64.19 37.37 64.66 35.55 63.95 33.34C63.23 31.14 61.6 29.36 61.6 29.36L62.95 29.33ZM65.5 37.35L62.93 29.41L64.25 29.3C64.25 29.3 63.79 31.13 64.5 33.33C65.22 35.53 66.85 37.31 66.85 37.31L65.5 37.35ZM60.57 25.23L54.95 19.07L54.19 20.16C54.19 20.16 56.01 20.66 57.57 22.38C59.14 24.09 59.87 26.39 59.87 26.39L60.57 25.23ZM54.87 19.04L60.49 25.2L61.24 24.11C61.24 24.11 59.42 23.61 57.86 21.9C56.3 20.19 55.56 17.89 55.56 17.89L54.87 19.04ZM54.38 34.17L55.01 37.47L53.51 37.93C53.51 37.93 54.54 36.85 54.37 35.93C54.19 35.01 52.87 34.59 52.87 34.59L54.38 34.17ZM54.98 37.52L54.35 34.22L55.86 33.76C55.86 33.76 54.82 34.84 54.99 35.75C55.17 36.67 56.49 37.09 56.49 37.09L54.98 37.52ZM52.06 30.17L49.51 27.99L48.36 29.07C48.36 29.07 49.81 28.71 50.52 29.31C51.23 29.92 50.94 31.28 50.94 31.28L52.06 30.17ZM49.45 28L52 30.18L53.15 29.1C53.15 29.1 51.7 29.46 50.99 28.85C50.28 28.25 50.57 26.89 50.57 26.89L49.45 28ZM25.25 44.96C26.71 44.11 28.59 44.6 29.44 46.07C30.3 47.54 29.8 49.42 28.33 50.27C26.87 51.12 24.99 50.62 24.13 49.16C23.28 47.69 23.78 45.81 25.25 44.96ZM16.37 50.12C17.83 49.26 19.71 49.76 20.56 51.23C21.41 52.7 20.92 54.57 19.45 55.43C17.98 56.28 16.1 55.78 15.25 54.31C14.4 52.85 14.9 50.97 16.37 50.12ZM20.3 51.38L24.38 49.01L25.06 50.08C25.06 50.08 23.64 49.77 22.5 50.42C21.37 51.09 20.93 52.47 20.93 52.47L20.3 51.38ZM24.44 49.01L20.36 51.39L19.68 50.32C19.68 50.32 21.11 50.63 22.24 49.97C23.37 49.31 23.81 47.92 23.81 47.92L24.44 49.01ZM17.45 50.28L14.89 42.34L16.2 42.23C16.2 42.23 15.74 44.06 16.45 46.26C17.17 48.47 18.8 50.24 18.8 50.24L17.45 50.28ZM14.89 42.26L17.46 50.19L16.14 50.31C16.14 50.31 16.61 48.48 15.89 46.27C15.18 44.07 13.55 42.29 13.55 42.29L14.89 42.26ZM19.83 54.37L25.45 60.53L26.2 59.44C26.2 59.44 24.38 58.94 22.82 57.23C21.26 55.51 20.52 53.22 20.52 53.22L19.83 54.37ZM25.53 60.56L19.91 54.4L19.15 55.49C19.15 55.49 20.97 55.99 22.53 57.7C24.09 59.42 24.83 61.72 24.83 61.72L25.53 60.56ZM26.01 45.43L25.38 42.14L26.89 41.67C26.89 41.67 25.86 42.76 26.03 43.67C26.21 44.59 27.53 45.01 27.53 45.01L26.01 45.43ZM25.42 42.09L26.05 45.39L24.54 45.85C24.54 45.85 25.58 44.77 25.4 43.85C25.23 42.93 23.9 42.51 23.9 42.51L25.42 42.09ZM28.33 49.43L30.89 51.61L32.03 50.53C32.03 50.53 30.58 50.89 29.87 50.29C29.16 49.68 29.45 48.33 29.45 48.33L28.33 49.43ZM30.95 51.61L28.39 49.42L27.25 50.51C27.25 50.51 28.7 50.14 29.41 50.75C30.12 51.35 29.83 52.71 29.83 52.71L30.95 51.61ZM35.04 24.85C35.89 26.32 35.4 28.2 33.93 29.05C32.46 29.9 30.58 29.4 29.73 27.93C28.88 26.47 29.38 24.59 30.85 23.74C32.31 22.89 34.19 23.38 35.04 24.85ZM29.88 15.97C30.74 17.43 30.24 19.31 28.77 20.17C27.3 21.02 25.43 20.52 24.57 19.05C23.72 17.59 24.22 15.71 25.69 14.86C27.15 14.01 29.03 14.5 29.88 15.97ZM28.62 19.9L30.99 23.99L29.92 24.66C29.92 24.66 30.23 23.24 29.58 22.11C28.92 20.97 27.53 20.53 27.53 20.53L28.62 19.9ZM30.99 24.05L28.61 19.96L29.68 19.29C29.68 19.29 29.37 20.71 30.03 21.84C30.69 22.98 32.08 23.41 32.08 23.41L30.99 24.05ZM29.72 17.06L37.66 14.49L37.77 15.81C37.77 15.81 35.94 15.34 33.74 16.06C31.53 16.77 29.76 18.4 29.76 18.4L29.72 17.06ZM37.74 14.5L29.81 17.06L29.69 15.75C29.69 15.75 31.52 16.21 33.73 15.5C35.93 14.78 37.71 13.15 37.71 13.15L37.74 14.5ZM25.63 19.43L19.47 25.05L20.56 25.81C20.56 25.81 21.06 23.99 22.77 22.42C24.49 20.86 26.79 20.13 26.79 20.13L25.63 19.43ZM19.44 25.13L25.6 19.51L24.51 18.76C24.51 18.76 24.01 20.58 22.29 22.14C20.58 23.7 18.28 24.44 18.28 24.44L19.44 25.13ZM34.57 25.62L37.87 24.99L38.32 26.49C38.32 26.49 37.24 25.46 36.33 25.63C35.41 25.81 34.99 27.13 34.99 27.13L34.57 25.62ZM37.91 25.02L34.61 25.65L34.15 24.14C34.15 24.14 35.23 25.18 36.15 25C37.07 24.83 37.49 23.51 37.49 23.51L37.91 25.02ZM30.57 27.94L28.39 30.49L29.47 31.64C29.47 31.64 29.1 30.19 29.71 29.48C30.32 28.77 31.67 29.06 31.67 29.06L30.57 27.94ZM28.39 30.55L30.58 28L29.49 26.85C29.49 26.85 29.86 28.3 29.25 29.01C28.65 29.72 27.29 29.43 27.29 29.43L28.39 30.55ZM45.35 54.75C44.5 53.29 45 51.41 46.47 50.55C47.93 49.7 49.81 50.2 50.66 51.67C51.52 53.13 51.02 55.01 49.55 55.87C48.08 56.72 46.21 56.22 45.35 54.75ZM50.51 63.64C49.66 62.17 50.16 60.29 51.63 59.44C53.09 58.59 54.97 59.09 55.82 60.55C56.68 62.02 56.18 63.9 54.71 64.75C53.24 65.6 51.37 65.1 50.51 63.64ZM51.78 59.7L49.41 55.62L50.47 54.94C50.47 54.94 50.16 56.36 50.82 57.5C51.48 58.63 52.87 59.07 52.87 59.07L51.78 59.7ZM49.41 55.56L51.79 59.64L50.72 60.32C50.72 60.32 51.03 58.9 50.37 57.76C49.71 56.63 48.32 56.19 48.32 56.19L49.41 55.56ZM50.67 62.55L42.74 65.12L42.63 63.8C42.63 63.8 44.45 64.26 46.66 63.55C48.86 62.84 50.64 61.2 50.64 61.2L50.67 62.55ZM42.65 65.1L50.59 62.54L50.7 63.86C50.7 63.86 48.87 63.39 46.67 64.11C44.47 64.82 42.69 66.45 42.69 66.45L42.65 65.1ZM54.77 60.17L60.93 54.55L59.84 53.8C59.84 53.8 59.34 55.62 57.62 57.18C55.91 58.74 53.61 59.48 53.61 59.48L54.77 60.17ZM60.96 54.47L54.8 60.09L55.89 60.85C55.89 60.85 56.39 59.03 58.1 57.47C59.81 55.91 62.11 55.17 62.11 55.17L60.96 54.47ZM45.83 53.99L42.53 54.62L42.07 53.11C42.07 53.11 43.15 54.14 44.07 53.97C44.99 53.79 45.41 52.47 45.41 52.47L45.83 53.99ZM42.48 54.58L45.78 53.95L46.24 55.46C46.24 55.46 45.16 54.42 44.25 54.6C43.33 54.77 42.91 56.1 42.91 56.1L42.48 54.58ZM49.83 51.66L52.01 49.11L50.93 47.96C50.93 47.96 51.29 49.42 50.69 50.13C50.08 50.84 48.72 50.54 48.72 50.54L49.83 51.66ZM52 49.05L49.82 51.61L50.9 52.76C50.9 52.76 50.54 51.3 51.15 50.59C51.75 49.88 53.11 50.17 53.11 50.17L52 49.05ZM37.15 55.32C37.15 53.62 38.52 52.25 40.22 52.25C41.91 52.25 43.29 53.62 43.29 55.32C43.29 57.02 41.91 58.39 40.22 58.39C38.52 58.39 37.15 57.02 37.15 55.32ZM37.15 65.59C37.15 63.89 38.52 62.52 40.22 62.52C41.91 62.52 43.29 63.89 43.29 65.59C43.29 67.29 41.91 68.66 40.22 68.66C38.52 68.66 37.15 67.29 37.15 65.59ZM40.22 62.82L40.22 58.1L41.48 58.05C41.48 58.05 40.5 59.12 40.5 60.44C40.5 61.75 41.48 62.82 41.48 62.82L40.22 62.82ZM40.25 58.05L40.25 62.78L38.99 62.83C38.99 62.83 39.97 61.75 39.97 60.44C39.97 59.13 38.99 58.05 38.99 58.05L40.25 58.05ZM37.83 64.73L29.68 62.97L30.25 61.77C30.25 61.77 31.59 63.09 33.86 63.58C36.12 64.07 38.48 63.55 38.48 63.55L37.83 64.73ZM29.61 62.92L37.76 64.68L37.2 65.88C37.2 65.88 35.85 64.56 33.59 64.07C31.32 63.58 28.96 64.1 28.96 64.1L29.61 62.92ZM42.56 64.73L50.71 62.97L50.15 61.77C50.15 61.77 48.8 63.09 46.54 63.58C44.27 64.07 41.91 63.55 41.91 63.55L42.56 64.73ZM50.78 62.92L42.63 64.68L43.2 65.88C43.2 65.88 44.54 64.56 46.81 64.07C49.07 63.58 51.43 64.1 51.43 64.1L50.78 62.92ZM37.94 54.9L34.77 53.78L35.13 52.25C35.13 52.25 35.55 53.69 36.43 54C37.31 54.31 38.34 53.37 38.34 53.37L37.94 54.9ZM34.75 53.73L37.92 54.84L37.56 56.38C37.56 56.38 37.15 54.94 36.27 54.63C35.39 54.32 34.36 55.26 34.36 55.26L34.75 53.73ZM42.57 54.9L45.74 53.78L45.38 52.25C45.38 52.25 44.96 53.69 44.08 54C43.2 54.31 42.17 53.37 42.17 53.37L42.57 54.9ZM45.76 53.73L42.59 54.84L42.95 56.38C42.95 56.38 43.36 54.94 44.25 54.63C45.13 54.32 46.15 55.26 46.15 55.26L45.76 53.73ZM24.68 36.75C26.38 36.75 27.75 38.12 27.75 39.82C27.75 41.52 26.38 42.89 24.68 42.89C22.98 42.89 21.61 41.52 21.61 39.82C21.61 38.12 22.98 36.75 24.68 36.75ZM14.41 36.75C16.1 36.75 17.48 38.12 17.48 39.82C17.48 41.52 16.1 42.89 14.41 42.89C12.71 42.89 11.34 41.52 11.34 39.82C11.34 38.12 12.71 36.75 14.41 36.75ZM17.17 39.82L21.9 39.82L21.95 41.08C21.95 41.08 20.87 40.1 19.56 40.1C18.25 40.1 17.17 41.08 17.17 41.08L17.17 39.82ZM21.95 39.86L17.22 39.86L17.18 38.59C17.18 38.59 18.25 39.58 19.56 39.58C20.87 39.58 21.95 38.59 21.95 38.59L21.95 39.86ZM15.27 37.44L17.03 29.29L18.23 29.85C18.23 29.85 16.91 31.2 16.42 33.46C15.93 35.73 16.45 38.08 16.45 38.08L15.27 37.44ZM17.08 29.22L15.32 37.37L14.12 36.8C14.12 36.8 15.44 35.46 15.93 33.19C16.42 30.93 15.9 28.57 15.9 28.57L17.08 29.22ZM15.27 42.17L17.03 50.32L18.23 49.75C18.23 49.75 16.91 48.41 16.42 46.14C15.93 43.88 16.45 41.52 16.45 41.52L15.27 42.17ZM17.08 50.39L15.32 42.24L14.12 42.8C14.12 42.8 15.44 44.15 15.93 46.41C16.42 48.68 15.9 51.04 15.9 51.04L17.08 50.39ZM25.1 37.55L26.21 34.38L27.75 34.74C27.75 34.74 26.31 35.15 26 36.03C25.69 36.92 26.63 37.94 26.63 37.94L25.1 37.55ZM26.27 34.36L25.16 37.53L23.62 37.16C23.62 37.16 25.06 36.75 25.37 35.87C25.68 34.99 24.75 33.96 24.75 33.96L26.27 34.36ZM25.1 42.17L26.21 45.34L27.75 44.98C27.75 44.98 26.31 44.56 26 43.68C25.69 42.8 26.63 41.78 26.63 41.78L25.1 42.17ZM26.27 45.36L25.16 42.19L23.62 42.55C23.62 42.55 25.06 42.97 25.37 43.85C25.68 44.73 24.75 45.76 24.75 45.76L26.27 45.36ZM55.72 42.85C54.02 42.85 52.65 41.48 52.65 39.78C52.65 38.09 54.02 36.71 55.72 36.71C57.41 36.71 58.79 38.09 58.79 39.78C58.79 41.48 57.41 42.85 55.72 42.85ZM65.99 42.85C64.29 42.85 62.92 41.48 62.92 39.78C62.92 38.09 64.29 36.71 65.99 36.71C67.68 36.71 69.06 38.09 69.06 39.78C69.06 41.48 67.68 42.85 65.99 42.85ZM63.22 39.78L58.5 39.78L58.45 38.52C58.45 38.52 59.52 39.5 60.84 39.5C62.15 39.5 63.22 38.52 63.22 38.52L63.22 39.78ZM58.45 39.75L63.17 39.75L63.22 41.01C63.22 41.01 62.15 40.03 60.84 40.03C59.52 40.03 58.45 41.01 58.45 41.01L58.45 39.75ZM65.13 42.17L63.36 50.32L62.17 49.75C62.17 49.75 63.49 48.41 63.98 46.14C64.47 43.88 63.95 41.52 63.95 41.52L65.13 42.17ZM63.31 50.39L65.08 42.24L66.28 42.8C66.28 42.8 64.96 44.15 64.47 46.41C63.97 48.68 64.49 51.04 64.49 51.04L63.31 50.39ZM65.13 37.44L63.36 29.29L62.17 29.85C62.17 29.85 63.49 31.2 63.98 33.46C64.47 35.73 63.95 38.08 63.95 38.08L65.13 37.44ZM63.31 29.22L65.08 37.37L66.28 36.8C66.28 36.8 64.96 35.46 64.47 33.19C63.97 30.93 64.49 28.57 64.49 28.57L63.31 29.22ZM55.29 42.06L54.18 45.23L52.65 44.86C52.65 44.86 54.09 44.45 54.39 43.57C54.7 42.69 53.77 41.66 53.77 41.66L55.29 42.06ZM54.13 45.25L55.24 42.08L56.78 42.44C56.78 42.44 55.34 42.85 55.03 43.73C54.72 44.61 55.65 45.64 55.65 45.64L54.13 45.25ZM55.29 37.43L54.18 34.26L52.65 34.62C52.65 34.62 54.09 35.04 54.39 35.92C54.7 36.8 53.77 37.83 53.77 37.83L55.29 37.43ZM54.13 34.24L55.24 37.41L56.78 37.05C56.78 37.05 55.34 36.63 55.03 35.75C54.72 34.87 55.65 33.85 55.65 33.85L54.13 34.24Z" />
	</g>
</svg>